PathFileType	4	(X/Y/Z)	31_2_18_p0_0-258.trc
DataRate	CameraRate	NumFrames	NumMarkers	Units	OrigDataRate	OrigDataStartFrame	OrigNumFrames
48.0	48.0	6	27	m	48.0	161	259
Frame#	Time	RHip			RKnee			RAnkle			RBigToe			RSmallToe			RHeel			LHip			LKnee			LAnkle			LBigToe			LSmallToe			LHeel			Neck			Head			Nose			RShoulder			RElbow			RWrist			RThumb			RIndex			RPinky			LShoulder			LElbow			LWrist			LThumb			LIndex			LPinky			
		X1	Y1	Z1	X2	Y2	Z2	X3	Y3	Z3	X4	Y4	Z4	X5	Y5	Z5	X6	Y6	Z6	X7	Y7	Z7	X8	Y8	Z8	X9	Y9	Z9	X10	Y10	Z10	X11	Y11	Z11	X12	Y12	Z12	X13	Y13	Z13	X14	Y14	Z14	X15	Y15	Z15	X16	Y16	Z16	X17	Y17	Z17	X18	Y18	Z18	X19	Y19	Z19	X20	Y20	Z20	X21	Y21	Z21	X22	Y22	Z22	X23	Y23	Z23	X24	Y24	Z24	X25	Y25	Z25	X26	Y26	Z26	X27	Y27	Z27	
161	3.3541666666666665	0.20655366702780187	0.5997117301513404	0.167608838095446	0.16612074532825297	0.7889109033382926	0.5417847272159961	0.12301995558912496	1.0438722097826407	0.9171554429222163	0.06209814869910324	0.8296466840114889	1.0146225055158657	0.1310875416209245	0.8867358682576855	1.012248569725132	0.103585521774799	1.140674745435923	0.9500500819054155	-0.022870936748737025	0.6145299905137096	0.14637381266134217	-0.054598245970973285	0.8101496128846543	0.5266315153012393	-0.0731581138461987	1.0375275129765695	0.894888827853228	-0.06872657009518815	0.8753669857369917	0.990715465305814	-0.12869298081909591	0.9263197751774268	0.9839056692309832	-0.04923012284097601	1.1388091032340637	0.929404506854679	0.14448642853365098	0.287262544326032	-0.4020876335270224	0.15541250310918117	0.1348069474471753	-0.634760732783827	0.1288026108148561	0.1326992772659145	-0.4769501056255232	0.30726002327137825	0.37203366781867603	-0.32178826286783074	0.33455600812386516	0.4572168368603236	-0.027866016997586604	0.12384622184846533	0.33082239104700173	0.13017357787170009	0.053177336375776096	0.4205680212459996	0.1481740986236163	0.06264021156705124	0.39533864555653947	0.20913994678951212	0.04183259714608863	0.37094701434759514	0.20693267795579803	-0.011955741076273141	0.3879970349482783	-0.335922109137831	-0.07097446733165398	0.4294912234038028	-0.06417883962750343	0.05387220748137081	0.41458458074080795	0.15099954280703212	0.1523457259550106	0.44127893669496177	0.2146539405269644	0.14775679132226893	0.42731559777275424	0.2547071123906409	0.11035821974794281	0.3922454539362039	0.26599622709024584
162	3.375	0.2038144545754701	0.6151342290623201	0.16511673259784723	0.16622981771541243	0.7890924036121066	0.5416827691491166	0.12299470914546226	1.0440354170617279	0.917277923763825	0.05800054479764164	0.8158086971436569	1.0125892268445351	0.12667449303921127	0.8723607239271131	1.010340402684875	0.10358875405600358	1.14073920267979	0.9501776612507444	-0.027293888888631997	0.6261453181711414	0.14317554775859434	-0.05458567858804023	0.8100996533858259	0.5266388454912606	-0.07246351136389	1.041106585651896	0.8995478683213137	-0.06877732281542832	0.8753032838380773	0.9905416544521229	-0.12910890213521886	0.9224532824041505	0.9791357483296228	-0.04495089085290639	1.1182712275404705	0.9281469041777956	0.14460164005748474	0.2861240644544852	-0.405211517787441	0.1556715960094276	0.13444804386093512	-0.6379430879236562	0.12902845568898044	0.13303197287785584	-0.47723524426006436	0.307238693721782	0.37191944245252556	-0.32185180002169556	0.3323473920529686	0.434431873705812	-0.0184251140298018	0.11618769030576032	0.3176703513881836	0.1292802319520805	0.06856440933870951	0.37733829215985776	0.18480713373235197	0.0700467221073904	0.3569654314090169	0.2323902453544032	0.04438075606817469	0.35953561995127065	0.21497606748851056	-0.011910816110328288	0.38808850836511477	-0.33600504985566026	-0.07102097007759993	0.4293344874010761	-0.06412562984091176	0.05729195306293599	0.4004787178531553	0.15019573132647013	0.1524709619761691	0.4263275317033842	0.21587346053964449	0.14713777870070235	0.4272330226712248	0.2572067268684236	0.11073402435306397	0.3819900259361734	0.2698730709304028
163	3.3958333333333335	0.20384929338481908	0.6163427486871023	0.16883017405475814	0.16632090623374257	0.7892686826012918	0.5417442924959407	0.12301623919644535	1.044084028651773	0.9172551418365745	0.05815033746094297	0.8158496691037939	1.0125552543724765	0.12680365712551503	0.8724401224941524	1.0103346234131636	0.10360906244741093	1.1407668823593493	0.9500916483126948	-0.023276489376889954	0.6395804257188061	0.14111740804525796	-0.05462265251760882	0.8100768569518338	0.5265482970494672	-0.07317489372741312	1.0375277030518357	0.8950235433236751	-0.06872027021212605	0.875269626642542	0.9954676371111371	-0.12866129822162645	0.9263167614496002	0.984003866934122	-0.04916816833991719	1.1391103831714875	0.9295360552391582	0.14459677005099622	0.2861977354086966	-0.405290135456151	0.15567736047737474	0.13643102295728804	-0.6354582229304313	0.1291353393763215	0.13315247608391642	-0.47733677778685196	0.3072819277413767	0.37212132401039966	-0.3219462612559009	0.3322425616736185	0.43446977817256566	-0.018424680748414073	0.12257550918195413	0.31880880225446157	0.1330381805804623	0.08395148230164293	0.3341085630737159	0.22144016884108766	0.07076853557273566	0.3615435212886254	0.24141999719998047	0.05382928610802985	0.3497077175167317	0.22854278451104212	-0.011929243170753888	0.38806648902951973	-0.3360047106100775	-0.07110119257455524	0.42941512471230675	-0.06411519122572193	0.05721837537380662	0.40132198587843276	0.15363849487846676	0.1509375679795283	0.4156995336150003	0.22274530423656652	0.14602819585181223	0.4279293395455656	0.2604606259506133	0.11091647943751894	0.3822862560254865	0.2700172676726592
164	3.4166666666666665	0.20339367511048104	0.6132989691646419	0.16531464303848672	0.16573857414131224	0.7862160511833596	0.5375855604681643	0.12296283890887498	1.04414299049767	0.917293929574771	0.05793159671639614	0.8156370875710388	1.0126954236238221	0.1265387447566641	0.8723620988339241	1.0104314383864719	0.10361030685495518	1.140680336982087	0.9499817259477737	-0.023962925335572708	0.64101231683209	0.14462958644029514	-0.050897203330835965	0.8247530156997573	0.5262541953073382	-0.07317546489591518	1.0376047162244375	0.8951736803775581	-0.06874699378010132	0.8750046217739605	0.9907501040862127	-0.1286574973175415	0.9264290786594186	0.9840135608172749	-0.04912226458998647	1.139084397357387	0.9295171235592684	0.1446059349865327	0.2861032378936525	-0.4053136836712496	0.1557056189383666	0.1364666430542454	-0.6354926446306844	0.13300240374303204	0.14293848560116448	-0.4813693419183821	0.3069832148967236	0.37313393832178626	-0.3186240427968482	0.3322407033625129	0.4347262414190499	-0.01825128569027413	0.1220561591973628	0.3202865597062329	0.13603827733075533	0.07365664314875389	0.3180206439290252	0.2158075490267446	0.07029267476205214	0.36076698191091083	0.24155742768276675	0.06003458126144246	0.32223236329579397	0.2343947060183465	-0.011939095963752028	0.38799668060646025	-0.3359828071555123	-0.07115227068113728	0.4292642936902732	-0.06414095440194947	0.05639216441306259	0.4025605280742867	0.1568415522591153	0.1437882627738884	0.4230649673199542	0.2130606814505886	0.14124421582303245	0.41296105400688377	0.2586778632561583	0.11054987613712709	0.38130302202348115	0.26662655756795905
165	3.4375	0.20377400723757116	0.6084192353935919	0.1581900947313799	0.16587565160358175	0.7862340402868837	0.5374304719016553	0.12288965055152162	1.043812900400139	0.9171476077557759	0.05827728892189435	0.8150894051606726	1.012124407218217	0.1266889760478937	0.8716170406798947	1.0102259719745725	0.10355469978584336	1.1406037908531166	0.9499606675858915	-0.023361862294326845	0.6353488824764355	0.1335388708720496	-0.050849736340103924	0.8248977654249703	0.5262582965443161	-0.08140079588873944	1.0194032281630716	0.8932448320932492	-0.06890771636827085	0.8744143356204293	0.9907709633952821	-0.12929651493904784	0.922732243746522	0.9796370020533869	-0.05457698916295782	1.1336012763325356	0.928737336450025	0.1450674778073672	0.28411707069564124	-0.41155157558035377	0.15581616775190116	0.13462099007102196	-0.6380581683050918	0.14125970289353842	0.1561011341983196	-0.483650039701325	0.3071209897579509	0.36982143664922884	-0.32491558641573115	0.3365484373060624	0.4445310320402432	-0.020785986330281406	0.11968742286174651	0.3349607562226543	0.1368259216046595	0.07268372758495173	0.34394252545351234	0.2150494505056535	0.06280751314193278	0.3730614712780514	0.2389885923626491	0.047825906619825144	0.334598025224774	0.2340429078028707	-0.011901780895064345	0.38803389657376336	-0.3360861709168575	-0.07117848966046696	0.4292156359686697	-0.0642896377045973	0.057080523736383754	0.4010182069833871	0.15022919390540906	0.14231794109526646	0.4263112076372624	0.21730871769879717	0.13726697182506442	0.4157897048966392	0.261764612936461	0.10780715724919235	0.39751337347838905	0.2679666536683016
166	3.4583333333333335	0.20611445833495481	0.590282614268227	0.1572921711492893	0.17036724610474907	0.7874507505396059	0.5373616062644879	0.12290344923422156	1.0441504746265913	0.917347953799322	0.05837438837415791	0.8153338427867517	1.0120550847088983	0.12663889042530557	0.8716994784593	1.010251653302697	0.10224281062717702	1.1432919603476346	0.9542762748993612	-0.020471084365360753	0.6192481715580072	0.13556272282316123	-0.05078826103167444	0.8248336838308806	0.5262371857467838	-0.08075612410881944	1.023177979653672	0.8980124351703297	-0.06893886220073818	0.8743166279113809	0.9909061950317078	-0.12882255289681963	0.9265577973133062	0.9843005378326924	-0.054563192627084166	1.133802875567794	0.9290773283044715	0.14507824339810155	0.28426002037374715	-0.4116309461079454	0.15330990379099357	0.14546381944282916	-0.6436259733325111	0.14144645179124676	0.15468134035134606	-0.4868830069605386	0.3071621925651288	0.36991085311842997	-0.3250077879544977	0.33670539503960994	0.4434135055280218	-0.024495682207452112	0.11897328787260837	0.3365525222946146	0.1394819267455847	0.07434325859878146	0.32823534239648333	0.21929615864599197	0.06588129113393212	0.35793321480307033	0.2418227626183334	0.04292319016742112	0.3451813039607099	0.2272597662470116	-0.011933133499758952	0.38797656719348184	-0.33613580802407317	-0.07129619327822825	0.42663413108905784	-0.06756787979761646	0.05290639737832823	0.41588713290805135	0.1544137325381689	0.14218024539301244	0.42753160393846623	0.21798550952767318	0.13983393732747676	0.4302295253043209	0.2662575823690859	0.1046222544542797	0.411426823442604	0.2661631635118421
